<?xml version="1.0" encoding="iso-8859-1"?>
<!-- Generator: Adobe Illustrator 19.0.0, SVG Export Plug-In . SVG Version: 6.00 Build 0)  -->
<svg version="1.1" id="Layer_1" xmlns="http://www.w3.org/2000/svg" xmlns:xlink="http://www.w3.org/1999/xlink" x="0px" y="0px"
	 viewBox="0 0 512 512" style="enable-background:new 0 0 512 512;" xml:space="preserve">
<g>
	<g>
		<path fill="#f28ca9" d="M503.549,481.373H371.817v-89.618c61.956-1.145,95.165-35.991,112.232-65.757c18.961-33.067,22.208-66.18,22.337-67.572
			c0.223-2.407-0.594-4.793-2.246-6.556c-1.652-1.762-3.942-2.752-6.396-2.671c-1.398,0.037-34.652,1.11-68.89,17.865
			c-19.841,9.71-42.217,25.96-57.037,52.766v-64.228c48.135-4.292,86.001-44.824,86.001-94.056c0-4.669-3.784-8.451-8.451-8.451
			c-4.669,0-8.451,3.783-8.451,8.451c0,39.907-30.299,72.87-69.099,77.093v-84.464c0-1.087,0.033-2.167,0.077-3.244
			c0.016-0.364,0.034-0.727,0.055-1.09c0.039-0.714,0.092-1.425,0.152-2.134c0.062-0.735,0.134-1.467,0.217-2.198
			c0.061-0.545,0.122-1.091,0.194-1.633c0.1-0.746,0.215-1.489,0.337-2.229c0.023-0.14,0.046-0.279,0.07-0.419
			c2.384-13.952,8.566-26.962,17.718-37.615c0.193-0.224,0.383-0.448,0.578-0.67c0.383-0.436,0.772-0.867,1.165-1.292
			c0.387-0.419,0.778-0.832,1.173-1.243c0.274-0.285,0.543-0.574,0.822-0.854c0.709-0.713,1.431-1.413,2.167-2.099
			c0.161-0.15,0.327-0.297,0.49-0.446c0.666-0.611,1.342-1.211,2.029-1.798c0.136-0.117,0.272-0.233,0.409-0.35
			c1.693-1.427,3.446-2.783,5.257-4.063c0.069-0.048,0.14-0.096,0.208-0.145c0.852-0.597,1.717-1.178,2.594-1.741
			c0.09-0.059,0.18-0.117,0.27-0.176c9.776-6.232,21.033-10.337,33.117-11.652v55.161c0,4.669,3.783,8.451,8.451,8.451
			c4.667,0,8.451-3.783,8.451-8.451v-64.07c0-4.669-3.784-8.451-8.451-8.451c-13.081,0-25.546,2.676-36.883,7.504
			c-9.418-30.287-43.098-51.271-44.703-52.255c-2.709-1.662-6.123-1.662-8.832,0c-1.606,0.984-35.288,21.966-44.703,52.255
			c-11.337-4.827-23.803-7.504-36.882-7.504c-4.669,0-8.451,3.783-8.451,8.451v30.268c0,4.669,3.783,8.451,8.451,8.451
			c4.669,0,8.451-3.783,8.451-8.451V77.083c12.084,1.316,23.343,5.421,33.12,11.654c0.088,0.056,0.175,0.114,0.263,0.17
			c0.879,0.565,1.745,1.147,2.6,1.746c0.069,0.048,0.137,0.096,0.206,0.144c1.811,1.279,3.564,2.637,5.257,4.062
			c0.139,0.117,0.275,0.234,0.412,0.353c0.685,0.586,1.358,1.183,2.022,1.792c0.166,0.152,0.335,0.302,0.499,0.455
			c0.734,0.684,1.455,1.383,2.161,2.094c0.282,0.284,0.554,0.577,0.832,0.865c0.391,0.406,0.779,0.815,1.161,1.229
			c0.396,0.43,0.788,0.863,1.173,1.302c0.19,0.216,0.378,0.437,0.567,0.656c9.155,10.653,15.339,23.667,17.724,37.621
			c0.024,0.141,0.047,0.282,0.071,0.424c0.122,0.74,0.237,1.482,0.337,2.227c0.072,0.542,0.133,1.087,0.194,1.633
			c0.083,0.73,0.156,1.464,0.217,2.199c0.059,0.709,0.113,1.42,0.152,2.134c0.02,0.363,0.039,0.726,0.055,1.09
			c0.045,1.077,0.077,2.157,0.077,3.244v84.464c-38.801-4.224-69.098-37.186-69.098-77.093v-29.301c0-4.669-3.783-8.451-8.451-8.451
			c-4.669,0-8.451,3.783-8.451,8.451v29.301c0,49.233,37.868,89.766,86.002,94.057v225.769H158.843v-65.118
			c61.956-1.145,95.165-35.991,112.232-65.757c18.961-33.067,22.208-66.18,22.337-67.572c0.223-2.407-0.594-4.793-2.246-6.556
			c-1.652-1.762-3.974-2.739-6.396-2.671c-1.398,0.037-34.652,1.11-68.89,17.865c-19.841,9.71-42.217,25.96-57.037,52.766v-88.728
			c48.135-4.291,86.002-44.824,86.002-94.056c0-4.669-3.783-8.451-8.451-8.451c-4.669,0-8.451,3.783-8.451,8.451
			c0,39.907-30.299,72.87-69.099,77.093v-84.464c0-1.087,0.033-2.167,0.077-3.244c0.016-0.364,0.035-0.727,0.055-1.09
			c0.039-0.714,0.094-1.425,0.152-2.134c0.062-0.735,0.134-1.467,0.217-2.198c0.061-0.545,0.122-1.091,0.194-1.633
			c0.1-0.745,0.214-1.485,0.337-2.226c0.024-0.142,0.047-0.284,0.071-0.427c2.383-13.943,8.56-26.946,17.702-37.593
			c0.201-0.232,0.399-0.467,0.602-0.696c0.378-0.429,0.761-0.853,1.148-1.274c0.397-0.43,0.8-0.856,1.207-1.278
			c0.264-0.274,0.523-0.551,0.79-0.821c0.713-0.719,1.44-1.423,2.182-2.114c0.153-0.143,0.31-0.282,0.464-0.424
			c0.677-0.621,1.365-1.232,2.064-1.83c0.127-0.108,0.252-0.217,0.381-0.325c1.7-1.433,3.463-2.798,5.284-4.084
			c0.056-0.039,0.113-0.078,0.169-0.117c0.869-0.611,1.751-1.202,2.646-1.777c0.076-0.048,0.151-0.098,0.227-0.146
			c9.78-6.238,21.043-10.346,33.134-11.662v55.161c0,4.669,3.783,8.451,8.451,8.451c4.669,0,8.451-3.783,8.451-8.451v-64.07
			c0-4.669-3.783-8.451-8.451-8.451c-13.079,0-25.545,2.676-36.882,7.504c-9.417-30.287-43.098-51.27-44.704-52.255
			c-2.709-1.662-6.123-1.662-8.832,0c-1.606,0.985-35.285,21.967-44.704,52.254c-11.337-4.828-23.803-7.503-36.882-7.503
			c-4.669,0-8.451,3.783-8.451,8.451v30.268c0,4.669,3.783,8.451,8.451,8.451s8.451-3.783,8.451-8.451V77.083
			c12.084,1.316,23.343,5.421,33.12,11.654c0.088,0.056,0.175,0.114,0.263,0.17c0.879,0.565,1.746,1.147,2.6,1.746
			c0.069,0.048,0.139,0.096,0.206,0.144c1.811,1.279,3.564,2.637,5.257,4.062c0.139,0.117,0.275,0.234,0.412,0.353
			c0.685,0.586,1.358,1.183,2.022,1.792c0.166,0.152,0.335,0.302,0.499,0.455c0.734,0.684,1.455,1.383,2.161,2.094
			c0.282,0.284,0.556,0.577,0.832,0.865c0.391,0.406,0.779,0.815,1.161,1.229c0.396,0.43,0.788,0.863,1.173,1.302
			c0.192,0.216,0.379,0.437,0.567,0.656c9.155,10.653,15.339,23.667,17.724,37.621c0.024,0.141,0.047,0.282,0.071,0.424
			c0.122,0.74,0.236,1.482,0.337,2.227c0.072,0.542,0.133,1.087,0.194,1.633c0.083,0.73,0.154,1.464,0.217,2.199
			c0.059,0.709,0.113,1.42,0.152,2.134c0.02,0.363,0.039,0.726,0.055,1.09c0.045,1.077,0.077,2.157,0.077,3.244v84.464
			c-38.801-4.224-69.098-37.186-69.098-77.093v-29.301c0-4.669-3.783-8.451-8.451-8.451s-8.451,3.783-8.451,8.451v29.301
			c0,49.231,37.867,89.765,86.001,94.056v87.127c-14.816-25.854-36.691-41.651-56.132-51.165
			c-34.237-16.754-67.491-17.827-68.89-17.865c-2.466-0.071-4.745,0.908-6.396,2.671c-1.652,1.765-2.469,4.15-2.246,6.556
			c0.128,1.393,3.376,34.506,22.337,67.572c16.985,29.624,49.944,64.276,111.327,65.741v65.134H8.451
			c-4.669,0-8.451,3.783-8.451,8.451c0,4.669,3.783,8.451,8.451,8.451h495.097c4.669,0,8.451-3.783,8.451-8.451
			C512,485.156,508.217,481.373,503.549,481.373z M435.8,282.484c20.164-9.964,40.394-13.896,52.14-15.43
			c-2.267,11.5-7.434,31.143-18.555,50.538c-18.887,32.939-46.794,51.789-83.13,56.262l69.7-65.277
			c3.406-3.191,3.582-8.539,0.392-11.947c-3.19-3.405-8.538-3.585-11.947-0.392l-69.699,65.277
			C381.512,325.723,401.984,299.193,435.8,282.484z M222.823,306.984c20.164-9.964,40.394-13.896,52.14-15.43
			c-2.267,11.5-7.434,31.143-18.555,50.538c-18.887,32.939-46.794,51.789-83.13,56.262l69.7-65.277
			c3.408-3.191,3.582-8.539,0.392-11.947c-3.191-3.405-8.538-3.583-11.947-0.392l-69.7,65.277
			C168.535,350.224,189.007,323.694,222.823,306.984z M58.704,333.077l69.698,65.275c-36.155-4.454-63.974-23.147-82.859-55.794
			c-11.262-19.468-16.511-39.397-18.81-51.016c11.622,1.509,31.562,5.379,51.643,15.206c34.106,16.69,54.742,43.303,61.583,79.268
			l-69.7-65.277c-3.409-3.19-8.757-3.014-11.947,0.392C55.122,324.536,55.296,329.886,58.704,333.077z M138.807,96.117
			c-0.228-0.292-0.455-0.584-0.686-0.873c-0.496-0.62-0.996-1.236-1.508-1.844c-0.498-0.593-1.009-1.175-1.521-1.756
			c-0.37-0.417-0.732-0.84-1.11-1.25c-0.836-0.914-1.695-1.81-2.568-2.693c-0.23-0.232-0.463-0.46-0.696-0.69
			c-0.855-0.846-1.726-1.679-2.615-2.494c-0.124-0.113-0.245-0.229-0.369-0.34c-2.174-1.973-4.447-3.848-6.813-5.621
			c-0.045-0.034-0.09-0.068-0.134-0.1c-1.387-1.038-2.798-2.05-4.249-3.014c2.684-12.207,11.535-23.135,18.953-30.493
			c5.605-5.56,11.187-9.895,14.899-12.563c3.713,2.669,9.294,7.006,14.899,12.563c7.418,7.357,16.27,18.286,18.953,30.493
			c-1.454,0.965-2.866,1.979-4.256,3.018c-0.042,0.032-0.085,0.062-0.126,0.094c-2.369,1.776-4.644,3.652-6.82,5.628
			c-0.121,0.109-0.239,0.222-0.359,0.331c-0.892,0.819-1.767,1.653-2.626,2.504c-0.231,0.228-0.462,0.453-0.69,0.683
			c-0.878,0.888-1.741,1.788-2.582,2.707c-0.37,0.403-0.727,0.818-1.09,1.228c-0.516,0.585-1.031,1.171-1.533,1.768
			c-0.51,0.606-1.009,1.22-1.504,1.839c-0.233,0.292-0.463,0.586-0.692,0.88c-4.573,5.848-8.468,12.245-11.577,19.077
			C147.278,108.365,143.381,101.968,138.807,96.117z M351.795,96.133c-0.234-0.301-0.469-0.602-0.707-0.899
			c-0.491-0.613-0.985-1.223-1.491-1.823c-0.512-0.608-1.036-1.207-1.563-1.804c-0.347-0.392-0.689-0.79-1.042-1.175
			c-0.85-0.93-1.723-1.84-2.61-2.737c-0.223-0.224-0.449-0.445-0.674-0.667c-0.864-0.856-1.745-1.697-2.644-2.521
			c-0.116-0.106-0.23-0.214-0.347-0.32c-2.176-1.975-4.452-3.853-6.821-5.629c-0.044-0.034-0.089-0.066-0.134-0.099
			c-1.387-1.038-2.798-2.05-4.249-3.014c2.683-12.208,11.533-23.136,18.952-30.494c5.605-5.56,11.188-9.895,14.899-12.563
			c3.713,2.669,9.294,7.006,14.899,12.563c7.418,7.357,16.27,18.286,18.953,30.494c-1.445,0.959-2.849,1.966-4.23,2.999
			c-0.056,0.042-0.114,0.083-0.17,0.126c-2.357,1.768-4.624,3.638-6.79,5.604c-0.131,0.118-0.259,0.24-0.389,0.359
			c-0.881,0.808-1.744,1.632-2.592,2.471c-0.239,0.235-0.478,0.47-0.714,0.708c-0.859,0.869-1.703,1.749-2.525,2.648
			c-0.401,0.436-0.788,0.885-1.181,1.329c-0.498,0.565-0.995,1.13-1.478,1.706c-0.518,0.614-1.024,1.238-1.526,1.866
			c-0.223,0.279-0.443,0.56-0.661,0.842c-4.58,5.855-8.481,12.258-11.594,19.098C360.258,108.371,356.364,101.979,351.795,96.133z"
			/>
	</g>
</g>
<g>
</g>
<g>
</g>
<g>
</g>
<g>
</g>
<g>
</g>
<g>
</g>
<g>
</g>
<g>
</g>
<g>
</g>
<g>
</g>
<g>
</g>
<g>
</g>
<g>
</g>
<g>
</g>
<g>
</g>
</svg>
